P3
24 7
255
    0  29 215    0  29 215    0  29 215    0  29 215    0  29 215    0  29 215    0  29 215    0  29 215    0  29 215    0  29 215    0  29 215    0  29 215    0  29 215    0  29 215    0  29 215    0  29 215    0  29 215    0  29 215    0  29 215    0  29 215    0  29 215    0  29 215    0  29 215    0  29 215
    0  29 215    0   0   0    0   0   0    0   0   0    0   0   0    0  29 215    0  29 215    0   0   0    0   0   0    0   0   0    0   0   0    0  29 215    0  29 215    0   0   0    0   0   0    0   0   0    0   0   0    0  29 215    0  29 215    0   0   0    0   0   0    0   0   0    0   0   0    0  29 215
    0  29 215    0   0   0    0  29 215    0  29 215    0  29 215    0  29 215    0  29 215    0   0   0    0  29 215    0  29 215    0  29 215    0  29 215    0  29 215    0   0   0    0  29 215    0  29 215    0  29 215    0  29 215    0  29 215    0   0   0    0  59 174    0  59 174    0   0   0    0  29 215
    0  29 215    0   0   0    0   0   0    0   0   0    0  29 215    0  29 215    0  29 215    0   0   0    0   0   0    0   0   0    0  29 215    0  29 215    0  29 215    0   0   0    0   0   0    0   0   0    0  29 215    0  29 215    0  29 215    0   0   0    0   0   0    0   0   0    0   0   0    0  29 215
    0  29 215    0   0   0    0  29 215    0  29 215    0  29 215    0  29 215    0  29 215    0   0   0    0  29 215    0  29 215    0  29 215    0  29 215    0  29 215    0   0   0    0  29 215    0  29 215    0  29 215    0  29 215    0  29 215    0   0   0    0  29 215    0  29 215    0  29 215    0  29 215
    0  29 215    0   0   0    0  29 215    0  29 215    0  29 215    0  29 215    0  29 215    0   0   0    0   0   0    0   0   0    0   0   0    0  29 215    0  29 215    0   0   0    0   0   0    0   0   0    0   0   0    0  29 215    0  29 215    0   0   0    0  29 215    0  29 215    0  29 215    0  29 215
    0  29 215    0  29 215    0  29 215    0  29 215    0  29 215    0  29 215    0  29 215    0  29 215    0  29 215    0  29 215    0  29 215    0  29 215    0  29 215    0  29 215    0  29 215    0  29 215    0  29 215    0  29 215    0  29 215    0  29 215    0  29 215    0  29 215    0  29 215    0  29 215
